<?xml version="1.0" encoding="UTF-8" standalone="no"?><!DOCTYPE svg PUBLIC "-//W3C//DTD SVG 1.1//EN" "http://www.w3.org/Graphics/SVG/1.1/DTD/svg11.dtd"><svg width="100%" height="100%" viewBox="0 0 5167 1667" version="1.1" xmlns="http://www.w3.org/2000/svg" xmlns:xlink="http://www.w3.org/1999/xlink" xml:space="preserve" xmlns:serif="http://www.serif.com/" style="fill-rule:evenodd;clip-rule:evenodd;"><rect x="0" y="0" width="5166.67" height="1666.67" style="fill:#fff;"/><path d="M841.667,791.667l66.666,-0" style="fill:none;fill-rule:nonzero;stroke:#94a3b8;stroke-width:8.33px;"/><path d="M1525,791.667l66.667,-0" style="fill:none;fill-rule:nonzero;stroke:#94a3b8;stroke-width:8.33px;"/><path d="M2208.33,791.667l66.667,-0" style="fill:none;fill-rule:nonzero;stroke:#94a3b8;stroke-width:8.33px;"/><path d="M2891.67,791.667l66.666,-0" style="fill:none;fill-rule:nonzero;stroke:#94a3b8;stroke-width:8.33px;"/><path d="M3575,791.667l66.667,-0" style="fill:none;fill-rule:nonzero;stroke:#94a3b8;stroke-width:8.33px;"/><path d="M4258.33,791.667l66.667,-0" style="fill:none;fill-rule:nonzero;stroke:#94a3b8;stroke-width:8.33px;"/><path d="M841.667,375c-0,-22.996 -18.671,-41.667 -41.667,-41.667l-533.333,0c-22.997,0 -41.667,18.671 -41.667,41.667l0,833.333c0,22.997 18.67,41.667 41.667,41.667l533.333,0c22.996,0 41.667,-18.67 41.667,-41.667l-0,-833.333Z" style="fill:#f8fafc;stroke:#94a3b8;stroke-width:6.25px;"/><circle cx="533.333" cy="483.333" r="70.833" style="fill:#172033;"/><text x="515.833px" y="508.333px" style="font-family:'PingFang SC Medium', 'PingFang SC', sans-serif;font-size:58.333px;fill:#fff;">1</text><text x="454.167px" y="683.333px" style="font-family:'PingFang SC Medium', 'PingFang SC', sans-serif;font-size:79.167px;fill:#172033;">身份</text><text x="425px" y="816.667px" style="font-family:'PingFang SC Medium', 'PingFang SC', sans-serif;font-size:54.167px;fill:#5b6475;">招聘录用</text><path d="M325,900l416.667,0" style="fill:none;fill-rule:nonzero;stroke:#d7dee8;stroke-width:6.25px;"/><text x="433.333px" y="1016.67px" style="font-family:'PingFang SC Medium', 'PingFang SC', sans-serif;font-size:50px;fill:#8a94a6;">组织档案</text><text x="383.333px" y="1108.33px" style="font-family:'PingFang SC Medium', 'PingFang SC', sans-serif;font-size:50px;fill:#8a94a6;">唯一身份凭证</text><path d="M1525,375c0,-22.996 -18.67,-41.667 -41.667,-41.667l-533.333,0c-22.996,0 -41.667,18.671 -41.667,41.667l0,833.333c0,22.997 18.671,41.667 41.667,41.667l533.333,0c22.997,0 41.667,-18.67 41.667,-41.667l0,-833.333Z" style="fill:#f8fafc;stroke:#94a3b8;stroke-width:6.25px;"/><circle cx="1216.67" cy="483.333" r="70.833" style="fill:#172033;"/><text x="1199.17px" y="508.333px" style="font-family:'PingFang SC Medium', 'PingFang SC', sans-serif;font-size:58.333px;fill:#fff;">2</text><text x="1137.5px" y="683.333px" style="font-family:'PingFang SC Medium', 'PingFang SC', sans-serif;font-size:79.167px;fill:#172033;">岗位</text><text x="1108.33px" y="816.667px" style="font-family:'PingFang SC Medium', 'PingFang SC', sans-serif;font-size:54.167px;fill:#5b6475;">定岗定编</text><path d="M1008.33,900l416.667,0" style="fill:none;fill-rule:nonzero;stroke:#d7dee8;stroke-width:6.25px;"/><text x="1116.67px" y="1016.67px" style="font-family:'PingFang SC Medium', 'PingFang SC', sans-serif;font-size:50px;fill:#8a94a6;">岗位蓝图</text><text x="1066.67px" y="1108.33px" style="font-family:'PingFang SC Medium', 'PingFang SC', sans-serif;font-size:50px;fill:#8a94a6;">按岗装配能力</text><path d="M2208.33,375c0,-22.996 -18.67,-41.667 -41.666,-41.667l-533.334,0c-22.996,0 -41.666,18.671 -41.666,41.667l-0,833.333c-0,22.997 18.67,41.667 41.666,41.667l533.334,0c22.996,0 41.666,-18.67 41.666,-41.667l0,-833.333Z" style="fill:#f8fafc;stroke:#94a3b8;stroke-width:6.25px;"/><circle cx="1900" cy="483.333" r="70.833" style="fill:#172033;"/><text x="1882.5px" y="508.333px" style="font-family:'PingFang SC Medium', 'PingFang SC', sans-serif;font-size:58.333px;fill:#fff;">3</text><text x="1820.83px" y="683.333px" style="font-family:'PingFang SC Medium', 'PingFang SC', sans-serif;font-size:79.167px;fill:#172033;">培训</text><text x="1737.5px" y="816.667px" style="font-family:'PingFang SC Medium', 'PingFang SC', sans-serif;font-size:54.167px;fill:#5b6475;">岗前培训持证</text><path d="M1691.67,900l416.666,0" style="fill:none;fill-rule:nonzero;stroke:#d7dee8;stroke-width:6.25px;"/><text x="1800px" y="1016.67px" style="font-family:'PingFang SC Medium', 'PingFang SC', sans-serif;font-size:50px;fill:#8a94a6;">沙盒考核</text><text x="1750px" y="1108.33px" style="font-family:'PingFang SC Medium', 'PingFang SC', sans-serif;font-size:50px;fill:#8a94a6;">合格持证上岗</text><path d="M2891.67,375c-0,-22.996 -18.671,-41.667 -41.667,-41.667l-533.333,0c-22.997,0 -41.667,18.671 -41.667,41.667l0,833.333c0,22.997 18.67,41.667 41.667,41.667l533.333,0c22.996,0 41.667,-18.67 41.667,-41.667l-0,-833.333Z" style="fill:#f0fdf9;stroke:#0e7c66;stroke-width:6.25px;"/><circle cx="2583.33" cy="483.333" r="70.833" style="fill:#0e7c66;"/><text x="2565.83px" y="508.333px" style="font-family:'PingFang SC Medium', 'PingFang SC', sans-serif;font-size:58.333px;fill:#fff;">4</text><text x="2504.17px" y="683.333px" style="font-family:'PingFang SC Medium', 'PingFang SC', sans-serif;font-size:79.167px;fill:#172033;">运营</text><text x="2475px" y="816.667px" style="font-family:'PingFang SC Medium', 'PingFang SC', sans-serif;font-size:54.167px;fill:#5b6475;">上岗履职</text><path d="M2375,900l416.667,0" style="fill:none;fill-rule:nonzero;stroke:#cdebdf;stroke-width:6.25px;"/><text x="2458.33px" y="1016.67px" style="font-family:'PingFang SC Medium', 'PingFang SC', sans-serif;font-size:50px;fill:#8a94a6;">七步工作法</text><text x="2458.33px" y="1108.33px" style="font-family:'PingFang SC Medium', 'PingFang SC', sans-serif;font-size:50px;fill:#8a94a6;">按职责履职</text><path d="M3575,375c0,-22.996 -18.67,-41.667 -41.667,-41.667l-533.333,0c-22.996,0 -41.667,18.671 -41.667,41.667l0,833.333c0,22.997 18.671,41.667 41.667,41.667l533.333,0c22.997,0 41.667,-18.67 41.667,-41.667l0,-833.333Z" style="fill:#f0fdf9;stroke:#0e7c66;stroke-width:6.25px;"/><circle cx="3266.67" cy="483.333" r="70.833" style="fill:#0e7c66;"/><text x="3249.17px" y="508.333px" style="font-family:'PingFang SC Medium', 'PingFang SC', sans-serif;font-size:58.333px;fill:#fff;">5</text><text x="3187.5px" y="683.333px" style="font-family:'PingFang SC Medium', 'PingFang SC', sans-serif;font-size:79.167px;fill:#172033;">审计</text><text x="3158.33px" y="816.667px" style="font-family:'PingFang SC Medium', 'PingFang SC', sans-serif;font-size:54.167px;fill:#5b6475;">留痕考核</text><path d="M3058.33,900l416.667,0" style="fill:none;fill-rule:nonzero;stroke:#cdebdf;stroke-width:6.25px;"/><text x="3166.67px" y="1016.67px" style="font-family:'PingFang SC Medium', 'PingFang SC', sans-serif;font-size:50px;fill:#8a94a6;">履职证据</text><text x="3116.67px" y="1108.33px" style="font-family:'PingFang SC Medium', 'PingFang SC', sans-serif;font-size:50px;fill:#8a94a6;">固化入审计链</text><path d="M4258.33,375c0,-22.996 -18.67,-41.667 -41.666,-41.667l-533.334,0c-22.996,0 -41.666,18.671 -41.666,41.667l-0,833.333c-0,22.997 18.67,41.667 41.666,41.667l533.334,0c22.996,0 41.666,-18.67 41.666,-41.667l0,-833.333Z" style="fill:#f8fafc;stroke:#94a3b8;stroke-width:6.25px;"/><circle cx="3950" cy="483.333" r="70.833" style="fill:#172033;"/><text x="3932.5px" y="508.333px" style="font-family:'PingFang SC Medium', 'PingFang SC', sans-serif;font-size:58.333px;fill:#fff;">6</text><text x="3870.83px" y="683.333px" style="font-family:'PingFang SC Medium', 'PingFang SC', sans-serif;font-size:79.167px;fill:#172033;">信任</text><text x="3841.67px" y="816.667px" style="font-family:'PingFang SC Medium', 'PingFang SC', sans-serif;font-size:54.167px;fill:#5b6475;">晋升降级</text><path d="M3741.67,900l416.666,0" style="fill:none;fill-rule:nonzero;stroke:#d7dee8;stroke-width:6.25px;"/><text x="3800px" y="1016.67px" style="font-family:'PingFang SC Medium', 'PingFang SC', sans-serif;font-size:50px;fill:#8a94a6;">证据驱动评级</text><text x="3800px" y="1108.33px" style="font-family:'PingFang SC Medium', 'PingFang SC', sans-serif;font-size:50px;fill:#8a94a6;">授权动态伸缩</text><path d="M4941.67,375c-0,-22.996 -18.671,-41.667 -41.667,-41.667l-533.333,0c-22.997,0 -41.667,18.671 -41.667,41.667l0,833.333c0,22.997 18.67,41.667 41.667,41.667l533.333,0c22.996,0 41.667,-18.67 41.667,-41.667l-0,-833.333Z" style="fill:#f8fafc;stroke:#94a3b8;stroke-width:6.25px;"/><circle cx="4633.33" cy="483.333" r="70.833" style="fill:#172033;"/><text x="4615.83px" y="508.333px" style="font-family:'PingFang SC Medium', 'PingFang SC', sans-serif;font-size:58.333px;fill:#fff;">7</text><text x="4554.17px" y="683.333px" style="font-family:'PingFang SC Medium', 'PingFang SC', sans-serif;font-size:79.167px;fill:#172033;">退役</text><text x="4525px" y="816.667px" style="font-family:'PingFang SC Medium', 'PingFang SC', sans-serif;font-size:54.167px;fill:#5b6475;">离岗传承</text><path d="M4425,900l416.667,0" style="fill:none;fill-rule:nonzero;stroke:#d7dee8;stroke-width:6.25px;"/><text x="4533.33px" y="1016.67px" style="font-family:'PingFang SC Medium', 'PingFang SC', sans-serif;font-size:50px;fill:#8a94a6;">审计封存</text><text x="4483.33px" y="1108.33px" style="font-family:'PingFang SC Medium', 'PingFang SC', sans-serif;font-size:50px;fill:#8a94a6;">经验蒸馏回馈</text><text x="1663.01px" y="1483.33px" style="font-family:'PingFang SC Medium', 'PingFang SC', sans-serif;font-size:58.333px;fill:#5b6475;">职业化生命周期七阶段 —— 以人力资源用工制度管理AI员工的完整链条</text></svg>