<?xml version="1.0" encoding="UTF-8" standalone="no"?><!DOCTYPE svg PUBLIC "-//W3C//DTD SVG 1.1//EN" "http://www.w3.org/Graphics/SVG/1.1/DTD/svg11.dtd"><svg width="100%" height="100%" viewBox="0 0 3167 1417" version="1.1" xmlns="http://www.w3.org/2000/svg" xmlns:xlink="http://www.w3.org/1999/xlink" xml:space="preserve" xmlns:serif="http://www.serif.com/" style="fill-rule:evenodd;clip-rule:evenodd;"><rect x="0" y="0" width="3166.67" height="1416.67" style="fill:#fff;"/><text x="485.067px" y="125px" style="font-family:'PingFang SC Medium', 'PingFang SC', sans-serif;font-size:75px;fill:#172033;">哈希模式（hash）</text><g><path d="M500,250c0,-18.397 -14.936,-33.333 -33.333,-33.333l-308.334,-0c-18.397,-0 -33.333,14.936 -33.333,33.333l-0,158.333c-0,18.398 14.936,33.334 33.333,33.334l308.334,-0c18.397,-0 33.333,-14.936 33.333,-33.334l0,-158.333Z" style="fill:#f1f5f9;stroke:#64748b;stroke-width:8.33px;"/><text x="259.008px" y="347.483px" style="font-family:'PingFang SC Medium', 'PingFang SC', sans-serif;font-size:58.333px;fill:#334155;">DO₁</text><path d="M1100,250c0,-18.397 -14.936,-33.333 -33.333,-33.333l-308.334,-0c-18.397,-0 -33.333,14.936 -33.333,33.333l0,158.333c0,18.398 14.936,33.334 33.333,33.334l308.334,-0c18.397,-0 33.333,-14.936 33.333,-33.334l0,-158.333Z" style="fill:#f1f5f9;stroke:#64748b;stroke-width:8.33px;"/><text x="855.771px" y="347.483px" style="font-family:'PingFang SC Medium', 'PingFang SC', sans-serif;font-size:58.333px;fill:#334155;">DO₂</text><path d="M1712.5,250c0,-18.397 -14.936,-33.333 -33.333,-33.333l-308.334,-0c-18.397,-0 -33.333,14.936 -33.333,33.333l0,158.333c0,18.398 14.936,33.334 33.333,33.334l308.334,-0c18.397,-0 33.333,-14.936 33.333,-33.334l0,-158.333Z" style="fill:#f1f5f9;stroke:#64748b;stroke-width:8.33px;"/><text x="1468.04px" y="347.25px" style="font-family:'PingFang SC Medium', 'PingFang SC', sans-serif;font-size:58.333px;fill:#334155;">DO₃</text><path d="M500,329.167l191.667,-0" style="fill:none;fill-rule:nonzero;stroke:#0e7c66;stroke-width:8.33px;"/><path d="M725,329.167l-41.667,-20.834l0,41.667l41.667,-20.833Z" style="fill:#0e7c66;fill-rule:nonzero;"/><text x="515.333px" y="283.333px" style="font-family:'PingFang SC Medium', 'PingFang SC', sans-serif;font-size:41.667px;fill:#0e7c66;">prev_hash</text><path d="M1095.83,329.167l208.334,-0" style="fill:none;fill-rule:nonzero;stroke:#0e7c66;stroke-width:8.7px;"/><path d="M1337.5,329.167l-41.667,-20.834l0,41.667l41.667,-20.833Z" style="fill:#0e7c66;fill-rule:nonzero;"/><text x="1123.67px" y="283.333px" style="font-family:'PingFang SC Medium', 'PingFang SC', sans-serif;font-size:41.667px;fill:#0e7c66;">prev_hash</text><text x="88.335px" y="566.667px" style="font-family:'PingFang SC Medium', 'PingFang SC', sans-serif;font-size:54.167px;fill:#5b6475;">hash(n) = SHA-256( JCS( 全 DO − hash − signature − signing_key_id ) )</text><g transform="matrix(50,0,0,50,1445.85,650)"></g><g transform="matrix(50,0,0,50,1464.5,650)"></g><text x="480.2px" y="650px" style="font-family:'PingFang SC Medium', 'PingFang SC', sans-serif;font-size:50px;fill:#8a94a6;">preimage_version = &quot;erdl-do-v1.5-hash-ﬂat&quot;</text></g><path d="M83.333,750l3000,0" style="fill:none;fill-rule:nonzero;stroke:#e2e8f0;stroke-width:8.33px;"/><text x="405.229px" y="875px" style="font-family:'PingFang SC Medium', 'PingFang SC', sans-serif;font-size:75px;fill:#172033;">签名模式（signature）</text><g><path d="M500,1000c0,-18.397 -14.936,-33.333 -33.333,-33.333l-308.334,-0c-18.397,-0 -33.333,14.936 -33.333,33.333l-0,158.333c-0,18.398 14.936,33.334 33.333,33.334l308.334,-0c18.397,-0 33.333,-14.936 33.333,-33.334l0,-158.333Z" style="fill:#eff6ff;stroke:#1e56a0;stroke-width:8.33px;"/><text x="259.008px" y="1097.48px" style="font-family:'PingFang SC Medium', 'PingFang SC', sans-serif;font-size:58.333px;fill:#334155;">DO₁</text><path d="M1100,1000c0,-18.397 -14.936,-33.333 -33.333,-33.333l-308.334,-0c-18.397,-0 -33.333,14.936 -33.333,33.333l0,158.333c0,18.398 14.936,33.334 33.333,33.334l308.334,-0c18.397,-0 33.333,-14.936 33.333,-33.334l0,-158.333Z" style="fill:#eff6ff;stroke:#1e56a0;stroke-width:8.33px;"/><text x="855.771px" y="1097.48px" style="font-family:'PingFang SC Medium', 'PingFang SC', sans-serif;font-size:58.333px;fill:#334155;">DO₂</text><path d="M1712.5,1000c0,-18.397 -14.936,-33.333 -33.333,-33.333l-308.334,-0c-18.397,-0 -33.333,14.936 -33.333,33.333l0,158.333c0,18.398 14.936,33.334 33.333,33.334l308.334,-0c18.397,-0 33.333,-14.936 33.333,-33.334l0,-158.333Z" style="fill:#eff6ff;stroke:#1e56a0;stroke-width:8.33px;"/><text x="1468.04px" y="1097.25px" style="font-family:'PingFang SC Medium', 'PingFang SC', sans-serif;font-size:58.333px;fill:#334155;">DO₃</text><path d="M500,1079.17l191.667,-0" style="fill:none;fill-rule:nonzero;stroke:#1e56a0;stroke-width:8.33px;"/><path d="M725,1079.17l-41.667,-20.834l0,41.667l41.667,-20.833Z" style="fill:#1e56a0;fill-rule:nonzero;"/><text x="524.167px" y="1033.33px" style="font-family:'PingFang SC Medium', 'PingFang SC', sans-serif;font-size:41.667px;fill:#1e56a0;">prev_sig</text><path d="M1095.83,1079.17l208.334,-0" style="fill:none;fill-rule:nonzero;stroke:#1e56a0;stroke-width:8.7px;"/><path d="M1337.5,1079.17l-41.667,-20.834l0,41.667l41.667,-20.833Z" style="fill:#1e56a0;fill-rule:nonzero;"/><text x="1128.33px" y="1033.33px" style="font-family:'PingFang SC Medium', 'PingFang SC', sans-serif;font-size:41.667px;fill:#1e56a0;">prev_sig</text><text x="87.794px" y="1316.67px" style="font-family:'PingFang SC Medium', 'PingFang SC', sans-serif;font-size:54.167px;fill:#5b6475;">ECDSA P-256 签名链 · 哈希字段物理省略 · 归属证明（防抵赖）</text></g><text x="2245.83px" y="583.333px" style="font-family:'PingFang SC Medium', 'PingFang SC', sans-serif;font-size:54.167px;fill:#172033;">双模式互斥</text><text x="2245.83px" y="675px" style="font-family:'PingFang SC Medium', 'PingFang SC', sans-serif;font-size:50px;fill:#8a94a6;">mode 字段选路：hash | signature</text></svg>